<?xml version="1.0" encoding="UTF-8" standalone="no"?>
<!DOCTYPE svg PUBLIC "-//W3C//DTD SVG 1.1//EN"
 "http://www.w3.org/Graphics/SVG/1.1/DTD/svg11.dtd">
<!-- Generated by graphviz version 2.40.1 (20161225.0304)
 -->
<!-- Title: %3 Pages: 1 -->
<svg width="2478pt" height="1131pt"
 viewBox="0.00 0.00 2478.13 1131.16" xmlns="http://www.w3.org/2000/svg" xmlns:xlink="http://www.w3.org/1999/xlink">
<g id="graph0" class="graph" transform="scale(1 1) rotate(0) translate(4 1127.1606)">
<title>%3</title>
<polygon fill="#ffffff" stroke="transparent" points="-4,4 -4,-1127.1606 2474.1255,-1127.1606 2474.1255,4 -4,4"/>
<!-- Cottage -->
<g id="node1" class="node">
<title>Cottage</title>
<ellipse fill="#b2dfee" stroke="#b2dfee" cx="599.0904" cy="-1077.9058" rx="155.627" ry="45.011"/>
<text text-anchor="start" x="574.5904" y="-1095.7058" font-family="Times,serif" font-weight="bold" font-size="14.00" fill="#000000">Cottage</text>
<text text-anchor="start" x="497.0904" y="-1081.7058" font-family="Times,serif" font-size="14.00" fill="#000000">You are standing in a small cottage.</text>
<text text-anchor="start" x="499.5904" y="-1067.7058" font-family="Times,serif" font-size="14.00" fill="#000000">You see: a fishing polean old lamp</text>
<text text-anchor="start" x="569.0904" y="-1053.7058" font-family="Times,serif" font-style="italic" font-size="14.00" fill="#000000">light lamp</text>
</g>
<!-- Garden Path -->
<g id="node2" class="node">
<title>Garden Path</title>
<ellipse fill="#b2dfee" stroke="#b2dfee" cx="599.0904" cy="-936.3961" rx="268.9013" ry="45.011"/>
<text text-anchor="start" x="558.5904" y="-954.1961" font-family="Times,serif" font-weight="bold" font-size="14.00" fill="#000000">Garden Path</text>
<text text-anchor="start" x="417.0904" y="-940.1961" font-family="Times,serif" font-size="14.00" fill="#000000">You are standing on a lush garden path. There is a cottage here.</text>
<text text-anchor="start" x="542.0904" y="-926.1961" font-family="Times,serif" font-size="14.00" fill="#000000">You see: a rosebush</text>
<text text-anchor="start" x="573.5904" y="-912.1961" font-family="Times,serif" font-style="italic" font-size="14.00" fill="#000000">pick rose</text>
</g>
<!-- Cottage&#45;&gt;Garden Path -->
<g id="edge1" class="edge">
<title>Cottage&#45;&gt;Garden Path</title>
<path fill="none" stroke="#000000" d="M582.167,-1032.7359C580.4872,-1026.7275 579.0506,-1020.5908 578.0904,-1014.6509 576.8729,-1007.1198 577.1138,-999.2674 578.2498,-991.5679"/>
<polygon fill="#000000" stroke="#000000" points="581.7197,-992.061 580.2114,-981.5741 574.8508,-990.7127 581.7197,-992.061"/>
<text text-anchor="middle" x="589.0904" y="-1003.4509" font-family="Times,serif" font-size="14.00" fill="#000000">Out</text>
</g>
<!-- Garden Path&#45;&gt;Cottage -->
<g id="edge2" class="edge">
<title>Garden Path&#45;&gt;Cottage</title>
<path fill="none" stroke="#000000" d="M599.99,-981.9132C600.1141,-992.649 600.1742,-1004.0534 600.0904,-1014.6509 600.0703,-1017.1976 600.0456,-1019.8018 600.0173,-1022.4323"/>
<polygon fill="#000000" stroke="#000000" points="596.5151,-1022.6005 599.8928,-1032.6425 603.5146,-1022.6859 596.5151,-1022.6005"/>
<text text-anchor="middle" x="607.5904" y="-1003.4509" font-family="Times,serif" font-size="14.00" fill="#000000">In</text>
</g>
<!-- Fishing Pond -->
<g id="node3" class="node">
<title>Fishing Pond</title>
<ellipse fill="#b2dfee" stroke="#b2dfee" cx="188.0904" cy="-784.9869" rx="188.1809" ry="55.3091"/>
<text text-anchor="start" x="146.5904" y="-809.7869" font-family="Times,serif" font-weight="bold" font-size="14.00" fill="#000000">Fishing Pond</text>
<text text-anchor="start" x="63.0904" y="-795.7869" font-family="Times,serif" font-size="14.00" fill="#000000">You are at the edge of a small fishing pond.</text>
<text text-anchor="start" x="103.0904" y="-781.7869" font-family="Times,serif" font-size="14.00" fill="#000000">You see: a small fishing pond</text>
<text text-anchor="start" x="160.5904" y="-767.7869" font-family="Times,serif" font-style="italic" font-size="14.00" fill="#000000">catch fish</text>
<text text-anchor="start" x="132.0904" y="-753.7869" font-family="Times,serif" font-style="italic" font-size="14.00" fill="#000000">catch fish with pole</text>
</g>
<!-- Garden Path&#45;&gt;Fishing Pond -->
<g id="edge3" class="edge">
<title>Garden Path&#45;&gt;Fishing Pond</title>
<path fill="none" stroke="#000000" d="M487.3257,-895.2229C434.0704,-875.604 370.1261,-852.0475 315.0443,-831.7558"/>
<polygon fill="#000000" stroke="#000000" points="316.1709,-828.4409 305.5774,-828.2682 313.7511,-835.0094 316.1709,-828.4409"/>
<text text-anchor="middle" x="436.5904" y="-861.9413" font-family="Times,serif" font-size="14.00" fill="#000000">South</text>
</g>
<!-- Winding Path -->
<g id="node4" class="node">
<title>Winding Path</title>
<ellipse fill="#b2dfee" stroke="#b2dfee" cx="760.0904" cy="-784.9869" rx="366.0628" ry="25.4118"/>
<text text-anchor="start" x="716.0904" y="-788.7869" font-family="Times,serif" font-weight="bold" font-size="14.00" fill="#000000">Winding Path</text>
<text text-anchor="start" x="509.0904" y="-774.7869" font-family="Times,serif" font-size="14.00" fill="#000000">You are walking along a winding path that leads south and east. There is a tall tree here.</text>
</g>
<!-- Garden Path&#45;&gt;Winding Path -->
<g id="edge4" class="edge">
<title>Garden Path&#45;&gt;Winding Path</title>
<path fill="none" stroke="#000000" d="M644.4768,-891.386C655.7056,-880.4207 667.7651,-868.7866 679.0904,-858.1413 693.5358,-844.5632 709.7031,-829.8647 723.7721,-817.2296"/>
<polygon fill="#000000" stroke="#000000" points="726.2352,-819.7221 731.348,-810.4425 721.5643,-814.5083 726.2352,-819.7221"/>
<text text-anchor="middle" x="696.0904" y="-861.9413" font-family="Times,serif" font-size="14.00" fill="#000000">North</text>
</g>
<!-- Fishing Pond&#45;&gt;Garden Path -->
<g id="edge5" class="edge">
<title>Fishing Pond&#45;&gt;Garden Path</title>
<path fill="none" stroke="#000000" d="M323.3193,-823.4476C343.9817,-829.1503 365.0834,-834.8753 385.0904,-840.1413 417.406,-848.6469 426.9868,-845.9263 458.0904,-858.1413 478.7677,-866.2616 500.1729,-876.8661 519.8684,-887.6346"/>
<polygon fill="#000000" stroke="#000000" points="518.3465,-890.7928 528.7886,-892.5855 521.7435,-884.6724 518.3465,-890.7928"/>
<text text-anchor="middle" x="508.0904" y="-861.9413" font-family="Times,serif" font-size="14.00" fill="#000000">North</text>
</g>
<!-- Afterlife -->
<g id="node5" class="node">
<title>Afterlife</title>
<ellipse fill="#b2dfee" stroke="#b2dfee" cx="302.0904" cy="-477.0681" rx="137.3577" ry="25.4118"/>
<text text-anchor="start" x="277.0904" y="-480.8681" font-family="Times,serif" font-weight="bold" font-size="14.00" fill="#000000">Afterlife</text>
<text text-anchor="start" x="213.0904" y="-466.8681" font-family="Times,serif" font-size="14.00" fill="#000000">Your are dead. GAME OVER.</text>
</g>
<!-- Fishing Pond&#45;&gt;Afterlife -->
<g id="edge6" class="edge">
<title>Fishing Pond&#45;&gt;Afterlife</title>
<path fill="none" stroke="#000000" d="M164.5322,-730.2111C150.6136,-689.23 139.5175,-632.8246 161.0904,-588.3229 178.3603,-552.6977 213.1829,-525.0437 243.8992,-506.217"/>
<polygon fill="#000000" stroke="#000000" points="246.0423,-509.0151 252.8546,-500.9006 242.4689,-502.9959 246.0423,-509.0151"/>
<text text-anchor="middle" x="183.0904" y="-629.8778" font-family="Times,serif" font-size="14.00" fill="#000000">Eat fish</text>
</g>
<!-- Winding Path&#45;&gt;Garden Path -->
<g id="edge7" class="edge">
<title>Winding Path&#45;&gt;Garden Path</title>
<path fill="none" stroke="#000000" d="M751.0292,-810.6173C743.2841,-829.6672 730.602,-855.3338 713.0904,-873.1413 708.0715,-878.245 702.5528,-883.0531 696.7345,-887.5607"/>
<polygon fill="#000000" stroke="#000000" points="694.6142,-884.7754 688.6335,-893.5207 698.7625,-890.4138 694.6142,-884.7754"/>
<text text-anchor="middle" x="743.5904" y="-861.9413" font-family="Times,serif" font-size="14.00" fill="#000000">South</text>
</g>
<!-- Drawbridge -->
<g id="node6" class="node">
<title>Drawbridge</title>
<ellipse fill="#b2dfee" stroke="#b2dfee" cx="1609.0904" cy="-633.5778" rx="368.3053" ry="45.011"/>
<text text-anchor="start" x="1571.5904" y="-651.3778" font-family="Times,serif" font-weight="bold" font-size="14.00" fill="#000000">Drawbridge</text>
<text text-anchor="start" x="1356.5904" y="-637.3778" font-family="Times,serif" font-size="14.00" fill="#000000">You come to the drawbridge of Action Castle. There is a mean troll guarding the bridge.</text>
<text text-anchor="start" x="1548.5904" y="-623.3778" font-family="Times,serif" font-size="14.00" fill="#000000">You see: a mean troll</text>
<text text-anchor="start" x="1564.0904" y="-609.3778" font-family="Times,serif" font-style="italic" font-size="14.00" fill="#000000">give fish to troll</text>
</g>
<!-- Winding Path&#45;&gt;Drawbridge -->
<g id="edge8" class="edge">
<title>Winding Path&#45;&gt;Drawbridge</title>
<path fill="none" stroke="#000000" d="M915.8713,-761.9178C1005.3317,-748.2571 1119.7045,-730.0929 1221.0904,-711.8326 1283.8411,-700.5308 1352.0747,-687.1415 1413.5734,-674.6626"/>
<polygon fill="#000000" stroke="#000000" points="1414.2816,-678.0903 1423.3838,-672.6681 1412.887,-671.2306 1414.2816,-678.0903"/>
<text text-anchor="middle" x="1307.5904" y="-700.6326" font-family="Times,serif" font-size="14.00" fill="#000000">East</text>
</g>
<!-- Top of the Tall Tree -->
<g id="node7" class="node">
<title>Top of the Tall Tree</title>
<ellipse fill="#b2dfee" stroke="#b2dfee" cx="718.0904" cy="-633.5778" rx="504.3343" ry="35.2113"/>
<text text-anchor="start" x="657.5904" y="-644.3778" font-family="Times,serif" font-weight="bold" font-size="14.00" fill="#000000">Top of the Tall Tree</text>
<text text-anchor="start" x="369.5904" y="-630.3778" font-family="Times,serif" font-size="14.00" fill="#000000">You are at the top of a tall tree. There is a stout deadbranch here. From your perch you can see the tower of Action Castle.</text>
<text text-anchor="start" x="594.5904" y="-616.3778" font-family="Times,serif" font-size="14.00" fill="#000000">You see: a dead brancha stout, dead branch</text>
</g>
<!-- Winding Path&#45;&gt;Top of the Tall Tree -->
<g id="edge9" class="edge">
<title>Winding Path&#45;&gt;Top of the Tall Tree</title>
<path fill="none" stroke="#000000" d="M741.4997,-759.2733C732.9038,-745.8368 723.6123,-728.7082 719.0904,-711.8326 716.3188,-701.4892 715.159,-690.0976 714.8812,-679.2835"/>
<polygon fill="#000000" stroke="#000000" points="718.381,-679.1385 714.8613,-669.1454 711.381,-679.1523 718.381,-679.1385"/>
<text text-anchor="middle" x="728.5904" y="-700.6326" font-family="Times,serif" font-size="14.00" fill="#000000">Up</text>
</g>
<!-- Drawbridge&#45;&gt;Winding Path -->
<g id="edge10" class="edge">
<title>Drawbridge&#45;&gt;Winding Path</title>
<path fill="none" stroke="#000000" d="M1367.1995,-667.7611C1308.7878,-676.6356 1246.625,-686.5962 1189.0904,-696.8326 1084.3916,-715.4604 966.0472,-740.0462 880.217,-758.52"/>
<polygon fill="#000000" stroke="#000000" points="879.4785,-755.0987 870.441,-760.628 880.9541,-761.9415 879.4785,-755.0987"/>
<text text-anchor="middle" x="1203.0904" y="-700.6326" font-family="Times,serif" font-size="14.00" fill="#000000">West</text>
</g>
<!-- Courtyard -->
<g id="node8" class="node">
<title>Courtyard</title>
<ellipse fill="#b2dfee" stroke="#b2dfee" cx="1609.0904" cy="-477.0681" rx="555.1577" ry="45.011"/>
<text text-anchor="start" x="1575.5904" y="-494.8681" font-family="Times,serif" font-weight="bold" font-size="14.00" fill="#000000">Courtyard</text>
<text text-anchor="start" x="1224.5904" y="-480.8681" font-family="Times,serif" font-size="14.00" fill="#000000">You are in the courtyard of Action Castle. A castle guardstands watch to the east. Stairs lead up into the tower and down into darkness.</text>
<text text-anchor="start" x="1544.0904" y="-466.8681" font-family="Times,serif" font-size="14.00" fill="#000000">You see: a castle guard</text>
<text text-anchor="start" x="1545.5904" y="-452.8681" font-family="Times,serif" font-style="italic" font-size="14.00" fill="#000000">hit guard with branch</text>
</g>
<!-- Drawbridge&#45;&gt;Courtyard -->
<g id="edge11" class="edge">
<title>Drawbridge&#45;&gt;Courtyard</title>
<path fill="none" stroke="#000000" stroke-dasharray="1,5" d="M1536.2596,-589.0191C1531.0578,-583.3352 1526.5205,-577.1038 1523.0904,-570.3229 1515.8327,-555.9752 1519.709,-542.2265 1528.9592,-529.902"/>
<polygon fill="#000000" stroke="#000000" points="1531.8767,-531.8779 1535.7509,-522.0168 1526.5728,-527.3096 1531.8767,-531.8779"/>
<text text-anchor="middle" x="1598.0904" y="-559.1229" font-family="Times,serif" font-size="14.00" fill="#000000">East</text>
<text text-anchor="middle" x="1598.0904" y="-544.1229" font-family="Times,serif" font-size="14.00" fill="#000000">The troll blocks your way</text>
</g>
<!-- Top of the Tall Tree&#45;&gt;Winding Path -->
<g id="edge12" class="edge">
<title>Top of the Tall Tree&#45;&gt;Winding Path</title>
<path fill="none" stroke="#000000" d="M729.6896,-668.9244C732.5472,-677.9879 735.5222,-687.7441 738.0904,-696.8326 742.9462,-714.0163 747.8094,-733.2405 751.724,-749.3405"/>
<polygon fill="#000000" stroke="#000000" points="748.4063,-750.5135 754.1498,-759.4165 755.2119,-748.875 748.4063,-750.5135"/>
<text text-anchor="middle" x="760.5904" y="-700.6326" font-family="Times,serif" font-size="14.00" fill="#000000">Down</text>
</g>
<!-- Top of the Tall Tree&#45;&gt;Afterlife -->
<g id="edge13" class="edge">
<title>Top of the Tall Tree&#45;&gt;Afterlife</title>
<path fill="none" stroke="#000000" d="M625.5082,-598.746C549.0211,-569.9696 442.0658,-529.7304 372.4445,-503.5371"/>
<polygon fill="#000000" stroke="#000000" points="373.4674,-500.1825 362.8754,-499.937 371.0025,-506.7341 373.4674,-500.1825"/>
<text text-anchor="middle" x="564.0904" y="-551.6229" font-family="Times,serif" font-size="14.00" fill="#000000">Jump</text>
</g>
<!-- Courtyard&#45;&gt;Drawbridge -->
<g id="edge14" class="edge">
<title>Courtyard&#45;&gt;Drawbridge</title>
<path fill="none" stroke="#000000" d="M1662.6183,-522.3099C1666.8123,-527.949 1670.4413,-533.9801 1673.0904,-540.3229 1678.2289,-552.6263 1678.2289,-558.0195 1673.0904,-570.3229 1671.6511,-573.7692 1669.9225,-577.1233 1667.9712,-580.3726"/>
<polygon fill="#000000" stroke="#000000" points="1665.0297,-578.4744 1662.3315,-588.7199 1670.83,-582.3933 1665.0297,-578.4744"/>
<text text-anchor="middle" x="1690.0904" y="-551.6229" font-family="Times,serif" font-size="14.00" fill="#000000">West</text>
</g>
<!-- Great Feasting Hall -->
<g id="node9" class="node">
<title>Great Feasting Hall</title>
<ellipse fill="#b2dfee" stroke="#b2dfee" cx="952.0904" cy="-320.5584" rx="415.5577" ry="45.011"/>
<text text-anchor="start" x="891.5904" y="-338.3584" font-family="Times,serif" font-weight="bold" font-size="14.00" fill="#000000">Great Feasting Hall</text>
<text text-anchor="start" x="666.0904" y="-324.3584" font-family="Times,serif" font-size="14.00" fill="#000000">You stand inside the great feasting hall. There is a strange candle here. Exits are to the east and west.</text>
<text text-anchor="start" x="880.0904" y="-310.3584" font-family="Times,serif" font-size="14.00" fill="#000000">You see: a strange candle</text>
<text text-anchor="start" x="917.5904" y="-296.3584" font-family="Times,serif" font-style="italic" font-size="14.00" fill="#000000">light candle</text>
</g>
<!-- Courtyard&#45;&gt;Great Feasting Hall -->
<g id="edge15" class="edge">
<title>Courtyard&#45;&gt;Great Feasting Hall</title>
<path fill="none" stroke="#000000" stroke-dasharray="1,5" d="M1343.7235,-437.287C1307.0498,-430.3066 1270.0062,-422.4663 1235.0904,-413.8133 1183.6626,-401.0682 1128.0865,-383.5942 1079.9134,-367.2153"/>
<polygon fill="#000000" stroke="#000000" points="1080.9754,-363.8796 1070.3809,-363.9558 1078.7106,-370.5031 1080.9754,-363.8796"/>
<text text-anchor="middle" x="1331.5904" y="-402.6133" font-family="Times,serif" font-size="14.00" fill="#000000">East</text>
<text text-anchor="middle" x="1331.5904" y="-387.6133" font-family="Times,serif" font-size="14.00" fill="#000000">The guard refuses to let you pass.</text>
</g>
<!-- Tower Stairs -->
<g id="node10" class="node">
<title>Tower Stairs</title>
<ellipse fill="#b2dfee" stroke="#b2dfee" cx="1609.0904" cy="-320.5584" rx="222.9775" ry="45.011"/>
<text text-anchor="start" x="1570.0904" y="-338.3584" font-family="Times,serif" font-weight="bold" font-size="14.00" fill="#000000">Tower Stairs</text>
<text text-anchor="start" x="1459.5904" y="-324.3584" font-family="Times,serif" font-size="14.00" fill="#000000">You climb the tower stairs until you come to a door.</text>
<text text-anchor="start" x="1549.0904" y="-310.3584" font-family="Times,serif" font-size="14.00" fill="#000000">You see: an old door</text>
<text text-anchor="start" x="1574.0904" y="-296.3584" font-family="Times,serif" font-style="italic" font-size="14.00" fill="#000000">unlock door</text>
</g>
<!-- Courtyard&#45;&gt;Tower Stairs -->
<g id="edge16" class="edge">
<title>Courtyard&#45;&gt;Tower Stairs</title>
<path fill="none" stroke="#000000" d="M1592.8789,-431.5123C1591.319,-425.6212 1589.9863,-419.6185 1589.0904,-413.8133 1587.0568,-400.6359 1587.0568,-396.9906 1589.0904,-383.8133 1589.5043,-381.1312 1590.0115,-378.407 1590.5912,-375.6711"/>
<polygon fill="#000000" stroke="#000000" points="1594.0375,-376.3089 1592.9709,-365.7679 1587.2312,-374.6733 1594.0375,-376.3089"/>
<text text-anchor="middle" x="1598.5904" y="-395.1133" font-family="Times,serif" font-size="14.00" fill="#000000">Up</text>
</g>
<!-- Dungeon Stairs -->
<g id="node11" class="node">
<title>Dungeon Stairs</title>
<ellipse fill="#b2dfee" stroke="#b2dfee" cx="2063.0904" cy="-320.5584" rx="213.5925" ry="25.4118"/>
<text text-anchor="start" x="2015.0904" y="-324.3584" font-family="Times,serif" font-weight="bold" font-size="14.00" fill="#000000">Dungeon Stairs</text>
<text text-anchor="start" x="1920.0904" y="-310.3584" font-family="Times,serif" font-size="14.00" fill="#000000">You are on the dungeon stairs. It’s very dark here.</text>
</g>
<!-- Courtyard&#45;&gt;Dungeon Stairs -->
<g id="edge17" class="edge">
<title>Courtyard&#45;&gt;Dungeon Stairs</title>
<path fill="none" stroke="#000000" d="M1737.0654,-432.9506C1816.1742,-405.6791 1915.2402,-371.5276 1983.2842,-348.0704"/>
<polygon fill="#000000" stroke="#000000" points="1984.7791,-351.2573 1993.0924,-344.6892 1982.4976,-344.6395 1984.7791,-351.2573"/>
<text text-anchor="middle" x="1894.5904" y="-395.1133" font-family="Times,serif" font-size="14.00" fill="#000000">Down</text>
</g>
<!-- Great Feasting Hall&#45;&gt;Courtyard -->
<g id="edge18" class="edge">
<title>Great Feasting Hall&#45;&gt;Courtyard</title>
<path fill="none" stroke="#000000" d="M1250.6197,-352.0601C1324.5681,-361.7139 1392.7428,-372.7265 1428.0904,-383.8133 1461.8589,-394.4048 1496.898,-410.9749 1527.0492,-427.2274"/>
<polygon fill="#000000" stroke="#000000" points="1525.3756,-430.3013 1535.8293,-432.0251 1528.7322,-424.1586 1525.3756,-430.3013"/>
<text text-anchor="middle" x="1514.0904" y="-395.1133" font-family="Times,serif" font-size="14.00" fill="#000000">West</text>
</g>
<!-- Throne Room -->
<g id="node12" class="node">
<title>Throne Room</title>
<ellipse fill="#b2dfee" stroke="#b2dfee" cx="952.0904" cy="-104.6518" rx="323.7099" ry="45.011"/>
<text text-anchor="start" x="908.0904" y="-122.4518" font-family="Times,serif" font-weight="bold" font-size="14.00" fill="#000000">Throne Room</text>
<text text-anchor="start" x="731.0904" y="-108.4518" font-family="Times,serif" font-size="14.00" fill="#000000">This is the throne room of Action Castle. There is an ornate gold throne here.</text>
<text text-anchor="start" x="877.0904" y="-94.4518" font-family="Times,serif" font-size="14.00" fill="#000000">You see: a fantastic throne</text>
<text text-anchor="start" x="915.5904" y="-80.4518" font-family="Times,serif" font-style="italic" font-size="14.00" fill="#000000">sit on throne</text>
</g>
<!-- Great Feasting Hall&#45;&gt;Throne Room -->
<g id="edge19" class="edge">
<title>Great Feasting Hall&#45;&gt;Throne Room</title>
<path fill="none" stroke="#000000" d="M933.4542,-275.1254C931.6591,-269.2137 930.1243,-263.1727 929.0904,-257.3036 923.4337,-225.1927 928.3475,-189.1274 935.0627,-160.1177"/>
<polygon fill="#000000" stroke="#000000" points="938.5199,-160.7145 937.4987,-150.169 931.7208,-159.0496 938.5199,-160.7145"/>
<text text-anchor="middle" x="941.5904" y="-238.6036" font-family="Times,serif" font-size="14.00" fill="#000000">East</text>
</g>
<!-- Tower Stairs&#45;&gt;Courtyard -->
<g id="edge20" class="edge">
<title>Tower Stairs&#45;&gt;Courtyard</title>
<path fill="none" stroke="#000000" d="M1609.0904,-365.9967C1609.0904,-383.3768 1609.0904,-403.3944 1609.0904,-421.6073"/>
<polygon fill="#000000" stroke="#000000" points="1605.5905,-421.799 1609.0904,-431.799 1612.5905,-421.7991 1605.5905,-421.799"/>
<text text-anchor="middle" x="1627.5904" y="-395.1133" font-family="Times,serif" font-size="14.00" fill="#000000">Down</text>
</g>
<!-- Tower -->
<g id="node13" class="node">
<title>Tower</title>
<ellipse fill="#b2dfee" stroke="#b2dfee" cx="1585.0904" cy="-104.6518" rx="267.9869" ry="104.8038"/>
<text text-anchor="start" x="1565.5904" y="-164.4518" font-family="Times,serif" font-weight="bold" font-size="14.00" fill="#000000">Tower</text>
<text text-anchor="start" x="1403.5904" y="-150.4518" font-family="Times,serif" font-size="14.00" fill="#000000">You are in the tower. There is a princess here. Stairs lead down.</text>
<text text-anchor="start" x="1458.5904" y="-136.4518" font-family="Times,serif" font-size="14.00" fill="#000000">You see: a beautiful, sad and lonely princess</text>
<text text-anchor="start" x="1527.0904" y="-122.4518" font-family="Times,serif" font-style="italic" font-size="14.00" fill="#000000">give rose to princess</text>
<text text-anchor="start" x="1541.5904" y="-108.4518" font-family="Times,serif" font-style="italic" font-size="14.00" fill="#000000">talk to princess</text>
<text text-anchor="start" x="1539.0904" y="-94.4518" font-family="Times,serif" font-style="italic" font-size="14.00" fill="#000000">ask about ghost</text>
<text text-anchor="start" x="1537.0904" y="-80.4518" font-family="Times,serif" font-style="italic" font-size="14.00" fill="#000000">ask about crown</text>
<text text-anchor="start" x="1538.5904" y="-66.4518" font-family="Times,serif" font-style="italic" font-size="14.00" fill="#000000">ask about tower</text>
<text text-anchor="start" x="1536.5904" y="-52.4518" font-family="Times,serif" font-style="italic" font-size="14.00" fill="#000000">ask about throne</text>
<text text-anchor="start" x="1529.0904" y="-38.4518" font-family="Times,serif" font-style="italic" font-size="14.00" fill="#000000">propose to princess</text>
</g>
<!-- Tower Stairs&#45;&gt;Tower -->
<g id="edge21" class="edge">
<title>Tower Stairs&#45;&gt;Tower</title>
<path fill="none" stroke="#000000" d="M1513.0906,-279.5743C1505.6331,-273.1232 1499.0771,-265.7378 1494.0904,-257.3036 1485.5887,-242.9245 1484.7532,-227.7997 1488.7214,-212.8879"/>
<polygon fill="#000000" stroke="#000000" points="1492.1327,-213.7233 1491.9905,-203.1294 1485.4952,-211.4997 1492.1327,-213.7233"/>
<text text-anchor="middle" x="1500.5904" y="-238.6036" font-family="Times,serif" font-size="14.00" fill="#000000">In</text>
</g>
<!-- Tower Stairs&#45;&gt;Tower -->
<g id="edge22" class="edge">
<title>Tower Stairs&#45;&gt;Tower</title>
<path fill="none" stroke="#000000" stroke-dasharray="1,5" d="M1543.5325,-277.0047C1538.1749,-271.0064 1533.5139,-264.4305 1530.0904,-257.3036 1523.9069,-244.431 1522.3292,-230.6704 1523.7757,-216.8783"/>
<polygon fill="#000000" stroke="#000000" points="1527.2581,-217.2621 1525.3409,-206.8422 1520.3417,-216.1834 1527.2581,-217.2621"/>
<text text-anchor="middle" x="1586.0904" y="-246.1036" font-family="Times,serif" font-size="14.00" fill="#000000">Up</text>
<text text-anchor="middle" x="1586.0904" y="-231.1036" font-family="Times,serif" font-size="14.00" fill="#000000">The door is locked.</text>
</g>
<!-- Dungeon Stairs&#45;&gt;Courtyard -->
<g id="edge23" class="edge">
<title>Dungeon Stairs&#45;&gt;Courtyard</title>
<path fill="none" stroke="#000000" d="M2031.0745,-345.9247C2002.6935,-367.1656 1959.3126,-396.6801 1917.0904,-413.8133 1899.0245,-421.1442 1880.0045,-427.6608 1860.6482,-433.4475"/>
<polygon fill="#000000" stroke="#000000" points="1859.4305,-430.1568 1850.8117,-436.3185 1861.3918,-436.8765 1859.4305,-430.1568"/>
<text text-anchor="middle" x="1980.5904" y="-395.1133" font-family="Times,serif" font-size="14.00" fill="#000000">Up</text>
</g>
<!-- Dungeon -->
<g id="node14" class="node">
<title>Dungeon</title>
<ellipse fill="#b2dfee" stroke="#b2dfee" cx="2178.0904" cy="-104.6518" rx="292.0702" ry="45.011"/>
<text text-anchor="start" x="2149.5904" y="-122.4518" font-family="Times,serif" font-weight="bold" font-size="14.00" fill="#000000">Dungeon</text>
<text text-anchor="start" x="1979.5904" y="-108.4518" font-family="Times,serif" font-size="14.00" fill="#000000">You are in the dungeon. There is a spooky ghost here. Stairs lead up.</text>
<text text-anchor="start" x="2114.5904" y="-94.4518" font-family="Times,serif" font-size="14.00" fill="#000000">You see: a scary ghost</text>
<text text-anchor="start" x="2145.5904" y="-80.4518" font-family="Times,serif" font-style="italic" font-size="14.00" fill="#000000">expel ghost</text>
</g>
<!-- Dungeon Stairs&#45;&gt;Dungeon -->
<g id="edge24" class="edge">
<title>Dungeon Stairs&#45;&gt;Dungeon</title>
<path fill="none" stroke="#000000" stroke-dasharray="1,5" d="M2055.1223,-295.0379C2050.5019,-275.7201 2047.1723,-248.9152 2056.0904,-227.3036 2067.3634,-199.9852 2087.9947,-175.547 2109.1247,-155.8108"/>
<polygon fill="#000000" stroke="#000000" points="2111.5473,-158.3388 2116.6048,-149.029 2106.8455,-153.1529 2111.5473,-158.3388"/>
<text text-anchor="middle" x="2110.0904" y="-246.1036" font-family="Times,serif" font-size="14.00" fill="#000000">Down</text>
<text text-anchor="middle" x="2110.0904" y="-231.1036" font-family="Times,serif" font-size="14.00" fill="#000000">It&#39;s too dark to see.</text>
</g>
<!-- Throne Room&#45;&gt;Great Feasting Hall -->
<g id="edge25" class="edge">
<title>Throne Room&#45;&gt;Great Feasting Hall</title>
<path fill="none" stroke="#000000" d="M953.3723,-150.0737C954.06,-180.4324 954.66,-221.2622 954.0904,-257.3036 954.0501,-259.851 954.0008,-262.4558 953.9443,-265.0868"/>
<polygon fill="#000000" stroke="#000000" points="950.4402,-265.2158 953.6951,-275.2982 957.4381,-265.3866 950.4402,-265.2158"/>
<text text-anchor="middle" x="968.0904" y="-238.6036" font-family="Times,serif" font-size="14.00" fill="#000000">West</text>
</g>
<!-- Tower&#45;&gt;Tower Stairs -->
<g id="edge26" class="edge">
<title>Tower&#45;&gt;Tower Stairs</title>
<path fill="none" stroke="#000000" d="M1636.7067,-207.6004C1638.8171,-214.1697 1640.6462,-220.7693 1642.0904,-227.3036 1644.9678,-240.3228 1645.2653,-244.3538 1642.0904,-257.3036 1641.3991,-260.1232 1640.5578,-262.9566 1639.5998,-265.7778"/>
<polygon fill="#000000" stroke="#000000" points="1636.2664,-264.6948 1635.9409,-275.2846 1642.7993,-267.2091 1636.2664,-264.6948"/>
<text text-anchor="middle" x="1655.0904" y="-238.6036" font-family="Times,serif" font-size="14.00" fill="#000000">Out</text>
</g>
<!-- Tower&#45;&gt;Tower Stairs -->
<g id="edge27" class="edge">
<title>Tower&#45;&gt;Tower Stairs</title>
<path fill="none" stroke="#000000" d="M1661.4396,-205.3012C1664.8283,-212.5216 1667.7712,-219.8855 1670.0904,-227.3036 1674.069,-240.0295 1675.0809,-244.9394 1670.0904,-257.3036 1668.6646,-260.836 1666.9367,-264.2811 1664.9791,-267.6223"/>
<polygon fill="#000000" stroke="#000000" points="1661.897,-265.9383 1659.3107,-276.2126 1667.7397,-269.7937 1661.897,-265.9383"/>
<text text-anchor="middle" x="1691.5904" y="-238.6036" font-family="Times,serif" font-size="14.00" fill="#000000">Down</text>
</g>
<!-- Dungeon&#45;&gt;Dungeon Stairs -->
<g id="edge28" class="edge">
<title>Dungeon&#45;&gt;Dungeon Stairs</title>
<path fill="none" stroke="#000000" d="M2184.0535,-150.0392C2185.9983,-182.2776 2183.7477,-225.3397 2164.0904,-257.3036 2155.8664,-270.6763 2143.6444,-281.6788 2130.5168,-290.5413"/>
<polygon fill="#000000" stroke="#000000" points="2128.3727,-287.7561 2121.7923,-296.0597 2132.1146,-293.672 2128.3727,-287.7561"/>
<text text-anchor="middle" x="2184.5904" y="-238.6036" font-family="Times,serif" font-size="14.00" fill="#000000">Up</text>
</g>
</g>
</svg>
